Coordinates
version=1
nRows=26
nColumns=22
inDegrees=yes

Units are S.I. units (second, meters, Newtons, ...)
If the header above contains a line with 'inDegrees', this indicates whether rotational values are in degrees (yes) or radians (no).

endheader
time	pelvis_tilt	pelvis_list	pelvis_rotation	pelvis_tx	pelvis_ty	pelvis_tz	hip_flexion_r	hip_adduction_r	hip_rotation_r	knee_angle_r	ankle_angle_r	subtalar_angle_r	hip_flexion_l	hip_adduction_l	hip_rotation_l	knee_angle_l	ankle_angle_l	subtalar_angle_l	lumbar_extension	lumbar_bending	lumbar_rotation
      3.86000000	     -1.19051416	      3.53978234	    150.59057029	      0.43896591	      0.99734041	     -0.26673947	      9.88929276	     -2.27885850	     -3.87067754	    -62.04873123	      5.55290935	     13.59808484	     13.81017993	      3.20522283	    -14.16251062	    -24.83802245	     11.49593072	    -11.30454086	    -14.27596481	     -0.14356136	      7.02342923
      3.87000000	     -1.22688335	      3.48703930	    151.44608933	      0.43318690	      0.99793267	     -0.26758743	     10.92665383	     -2.38842175	     -3.38572312	    -62.23796643	      5.81285064	     13.23021307	     13.28867033	      3.54962227	    -13.47445968	    -24.45130698	     11.58282699	    -11.30929338	    -14.29979951	     -0.08735387	      6.60562001
      3.88000000	     -1.23965793	      3.43796972	    152.32194540	      0.42748205	      0.99849528	     -0.26828460	     11.93179511	     -2.48648173	     -2.90351489	    -62.18629616	      6.01876872	     12.67742767	     12.78613752	      3.87479161	    -12.75078999	    -24.05973196	     11.65215099	    -11.34321374	    -14.31075081	     -0.00296305	      6.21111268
      3.89000000	     -1.26428324	      3.38169720	    153.22884276	      0.42178602	      0.99906694	     -0.26887045	     12.86238462	     -2.60213142	     -2.42104916	    -61.89990783	      6.23173518	     12.17999947	     12.25749049	      4.20959611	    -12.00066945	    -23.63773929	     11.72437102	    -11.35377700	    -14.32639207	      0.07346439	      5.79163428
      3.90000000	     -1.27132056	      3.31946300	    154.15754208	      0.41613188	      0.99959724	     -0.26935858	     13.75170775	     -2.71566093	     -1.93729910	    -61.39300016	      6.44817521	     11.60517127	     11.74211010	      4.53248045	    -11.22953322	    -23.20799936	     11.78975419	    -11.36810426	    -14.32176410	      0.15619345	      5.36496527
      3.91000000	     -1.25973816	      3.25193252	    155.10567539	      0.41051598	      1.00008720	     -0.26975095	     14.59696806	     -2.82599756	     -1.45253029	    -60.67101996	      6.68535856	     10.97925197	     11.24231483	      4.84462312	    -10.42648237	    -22.77404099	     11.83178515	    -11.38132219	    -14.29875882	      0.24784434	      4.93307555
      3.92000000	     -1.23416639	      3.18023361	    156.06286958	      0.40496685	      1.00052274	     -0.27008993	     15.40092854	     -2.92583099	     -0.95266370	    -59.75851089	      6.96341652	     10.28357763	     10.76192577	      5.14174923	     -9.60092333	    -22.35309334	     11.88452980	    -11.39936557	    -14.26544731	      0.33494475	      4.50723465
      3.93000000	     -1.18641539	      3.10996958	    157.03334392	      0.39944108	      1.00091330	     -0.27037798	     16.16208304	     -3.01479705	     -0.46119682	    -58.65721701	      7.26255416	      9.56423680	     10.30181626	      5.41612722	     -8.75730467	    -21.93754439	     11.91155389	    -11.41610683	    -14.21029173	      0.43192357	      4.08323747
      3.94000000	     -1.12941531	      3.04086747	    158.00089549	      0.39400972	      1.00124230	     -0.27065477	     16.88286783	     -3.07987466	      0.05874233	    -57.39964534	      7.61694435	      8.79648217	      9.86914864	      5.66963730	     -7.89437773	    -21.56239605	     11.95844758	    -11.43858002	    -14.15792130	      0.52027723	      3.67029829
      3.95000000	     -1.05713041	      2.97975753	    158.95739863	      0.38863032	      1.00151932	     -0.27092539	     17.56394398	     -3.11864863	      0.59242112	    -55.98955395	      8.00205326	      8.00210758	      9.46091365	      5.89420429	     -7.02776690	    -21.21764026	     12.01365815	    -11.46537791	    -14.09942005	      0.61468822	      3.28273988
      3.96000000	     -0.97353687	      2.92860308	    159.90626250	      0.38331943	      1.00174272	     -0.27122172	     18.20458058	     -3.12578764	      1.13635289	    -54.44721170	      8.41657678	      7.21068895	      9.07957693	      6.08687527	     -6.16368839	    -20.91424629	     12.08402327	    -11.49433100	    -14.04135003	      0.70753537	      2.91746241
      3.97000000	     -0.87726120	      2.89135435	    160.84269056	      0.37805854	      1.00192060	     -0.27153384	     18.80998979	     -3.09952567	      1.68558794	    -52.78887040	      8.79118806	      6.47740030	      8.72194618	      6.24848485	     -5.29057505	    -20.64443533	     12.15627171	    -11.51772717	    -13.97949810	      0.80892926	      2.58464558
      3.98000000	     -0.77612406	      2.87056543	    161.75798105	      0.37287530	      1.00205121	     -0.27190001	     19.37719800	     -3.03167502	      2.24977739	    -51.03392127	      9.16331943	      5.77918256	      8.39110292	      6.37384596	     -4.43227395	    -20.42753579	     12.25391963	    -11.54207865	    -13.92823873	      0.91024177	      2.28833409
      3.99000000	     -0.66649118	      2.86750550	    162.65626638	      0.36773378	      1.00214000	     -0.27229943	     19.91010945	     -2.93039671	      2.80303407	    -49.19313697	      9.49269697	      5.20584305	      8.08409655	      6.46586172	     -3.57826459	    -20.25187384	     12.37230382	    -11.55540984	    -13.87929371	      1.02078667	      2.02503364
      4.00000000	     -0.56010148	      2.88361028	    163.53214585	      0.36266175	      1.00219237	     -0.27275889	     20.40442772	     -2.78825030	      3.35832039	    -47.29135011	      9.77293557	      4.70380977	      7.79860771	      6.52427024	     -2.73625141	    -20.13243948	     12.51131841	    -11.56716415	    -13.84926000	      1.13223709	      1.80749662
      4.01000000	     -0.44338079	      2.92226513	    164.39477007	      0.35762353	      1.00218364	     -0.27323978	     20.87387933	     -2.60932505	      3.89010229	    -45.34366384	     10.01575981	      4.44456983	      7.55131523	      6.54549851	     -1.90767365	    -20.07726357	     12.69391954	    -11.55598768	    -13.81858651	      1.26290578	      1.62427445
      4.02000000	     -0.34120355	      2.97330675	    165.24354043	      0.35258603	      1.00217475	     -0.27375786	     21.29715861	     -2.41453192	      4.37443934	    -43.35997920	     10.13136976	      4.19729422	      7.29355594	      6.55006162	     -1.07321974	    -20.03687505	     12.86758383	    -11.55048168	    -13.80679825	      1.38959844	      1.47995101
      4.03000000	     -0.24893256	      3.03795398	    166.07928410	      0.34753998	      1.00213820	     -0.27428870	     21.68304262	     -2.20420230	      4.80056855	    -41.36099406	     10.17414557	      4.06647940	      7.04067220	      6.53566319	     -0.24577652	    -20.03271303	     13.06149128	    -11.53999189	    -13.80854474	      1.52168321	      1.37376241
      4.04000000	     -0.16996797	      3.11465212	    166.91375306	      0.34246365	      1.00207949	     -0.27482526	     22.03038891	     -1.98527276	      5.14329922	    -39.36366727	     10.13659627	      4.05271870	      6.78343557	      6.50519267	      0.58576399	    -20.05426659	     13.27064575	    -11.52331306	    -13.82378104	      1.65659401	      1.29060456
      4.05000000	     -0.10942575	      3.20016925	    167.75046263	      0.33733867	      1.00200516	     -0.27533589	     22.33855349	     -1.76633942	      5.38455400	    -37.38422991	     10.02665501	      4.14766913	      6.51235969	      6.46477902	      1.42274840	    -20.09278103	     13.49306712	    -11.50060615	    -13.85450145	      1.79822290	      1.22750418
      4.06000000	     -0.10362182	      3.29113019	    168.59067156	      0.33212891	      1.00197579	     -0.27582616	     22.56756513	     -1.55824712	      5.50981903	    -35.43086947	      9.89625860	      4.38501194	      6.17149354	      6.42544150	      2.27390890	    -20.11737193	     13.71050116	    -11.47629032	    -13.93914424	      1.93042826	      1.18540233
      4.07000000	     -0.06467734	      3.38398202	    169.43121092	      0.32688896	      1.00183286	     -0.27631150	     22.82721836	     -1.33568325	      5.52672294	    -33.53065121	      9.64958738	      4.64932059	      5.88826000	      6.36519189	      3.09982098	    -20.18553614	     13.96713132	    -11.43606300	    -13.97731321	      2.07263900	      1.15013693
      4.08000000	     -0.10597066	      3.47433800	    170.27576248	      0.32153712	      1.00177653	     -0.27676952	     22.98537792	     -1.13041968	      5.42742154	    -31.67942766	      9.46157714	      5.10151700	      5.48957492	      6.31603247	      3.94769826	    -20.20455826	     14.20334999	    -11.38176698	    -14.09408429	      2.19515187	      1.14185677
      4.09000000	     -0.14275425	      3.55904439	    171.11691459	      0.31614527	      1.00165688	     -0.27723127	     23.14544174	     -0.91173848	      5.25437797	    -29.89487277	      9.20044630	      5.59285678	      5.10324834	      6.25658690	      4.76592840	    -20.23714811	     14.46489922	    -11.31299607	    -14.19657454	      2.31183115	      1.14054972
      4.10000000	     -0.19556916	      3.63931084	    171.95478654	      0.31070165	      1.00151407	     -0.27771147	     23.27855377	     -0.67689888	      5.03646042	    -28.17282703	      8.93068244	      6.16297362	      4.69590859	      6.18808326	      5.56269028	    -20.26381549	     14.73372106	    -11.22565233	    -14.30865161	      2.41597365	      1.14551242
      4.11000000	     -0.26032511	      3.71186356	    172.79575151	      0.30520414	      1.00133450	     -0.27820010	     23.38835243	     -0.42770578	      4.80248500	    -26.51789697	      8.69228312	      6.79243665	      4.27253643	      6.11305797	      6.34322674	    -20.28430118	     15.00969778	    -11.12056408	    -14.42346943	      2.50858648	      1.15739899
